<?xml version="1.0" ?><svg xmlns="http://www.w3.org/2000/svg" viewBox="0 0 64 64"><g id="Solid"><path d="M15.3181,19.9877A11.4521,11.4521,0,0,1,24.23,16.0083a14.7208,14.7208,0,0,1,8.5372,2.3311,12.6244,12.6244,0,0,0-3.5,5.4054,9.5109,9.5109,0,0,0-3.1092-3.217C24.3027,19.3372,20.6006,17.8682,15.3181,19.9877ZM58,36.5137A2.5,2.5,0,1,1,53.6559,34.84c-.41-1.3066-2.2722-6.4621-6.1452-6.4621a2.1137,2.1137,0,0,0-1.82.8448c-1.3174,1.7705-.6562,5.9755-.13,7.7343a30.3582,30.3582,0,0,1,1.4151,7.4776.5.5,0,0,1-.1885.3911c-.1621.1289-4.0937,3.166-14.7871,3.166s-14.625-3.0371-14.7871-3.166a.5.5,0,0,1-.1885-.3911A30.3145,30.3145,0,0,1,18.439,36.957c.5273-1.7583,1.1889-5.9624-.1294-7.7339a2.1124,2.1124,0,0,0-1.82-.8452c-3.8747,0-5.7361,5.1577-6.1448,6.4629a2.4967,2.4967,0,1,1-2.4572-.7422,14.5165,14.5165,0,0,1,2.748-9.4184,11.1737,11.1737,0,0,1,3.8461-3.2159l.0043-.0115c5.5261-2.7032,9.3121-1.2509,11.1325-.0832,2.1843,1.4013,3.2271,3.3735,3.19,4.0674a10.6773,10.6773,0,0,0-.1984,1.3281.5.5,0,0,0,.4677.53l.0318.001a.5.5,0,0,0,.4985-.4688,12.3291,12.3291,0,0,1,4.7147-8.458c.0359-.0255.0744-.0477.1107-.0727.2114-.1472.4347-.2874.6649-.4233a8.8378,8.8378,0,0,1,1.5434-.713,10.7551,10.7551,0,0,1,8.74.4834,5.7594,5.7594,0,0,1,2.07,1.9725A11.5423,11.5423,0,0,0,34.07,25.2847a.5.5,0,0,0,.8985.438c.1668-.34,4.0654-8.0418,13.4489-4.7721a11.593,11.593,0,0,1,4.9475,3.73,14.54,14.54,0,0,1,2.7478,9.418A2.4978,2.4978,0,0,1,58,36.5137Zm-48,0a1.5,1.5,0,1,0-1.5,1.5A1.5016,1.5016,0,0,0,10,36.5137Zm22,6.5024a46.7406,46.7406,0,0,1-13.5326-2.128,19.5758,19.5758,0,0,0-.44,3.2867C18.92,44.75,22.9849,46.9917,32,46.9917S45.0791,44.75,45.9717,44.1748a19.53,19.53,0,0,0-.4342-3.2606A47.6986,47.6986,0,0,1,32,43.0161Zm25-6.5024a1.5,1.5,0,1,0-1.5,1.5A1.5016,1.5016,0,0,0,57,36.5137Z"/></g></svg>