<?xml version="1.0" ?><svg xmlns="http://www.w3.org/2000/svg" viewBox="0 0 64 64"><g id="Line"><path d="M56.113,34.0987a14.54,14.54,0,0,0-2.7478-9.418,11.7929,11.7929,0,0,0-5.3986-3.917,5.2307,5.2307,0,0,0-2.5848-3.12,10.7551,10.7551,0,0,0-8.74-.4834,9.6822,9.6822,0,0,0-3.0824,1.7963c-.9562-.8508-3.8684-2.9486-9.3292-2.9486-5.6687,0-9.2407,3.6568-9.7486,5.456A11.1737,11.1737,0,0,0,10.6353,24.68a14.5165,14.5165,0,0,0-2.748,9.4184,2.5068,2.5068,0,1,0,2.4572.7422c.4087-1.3052,2.27-6.4629,6.1448-6.4629a2.1124,2.1124,0,0,1,1.82.8452c1.3183,1.7715.6567,5.9756.1294,7.7339a30.3145,30.3145,0,0,0-1.4146,7.4776.5.5,0,0,0,.1885.3911c.1621.1289,4.0942,3.166,14.7871,3.166s14.625-3.0371,14.7871-3.166a.5.5,0,0,0,.1885-.3911,30.3582,30.3582,0,0,0-1.4151-7.4776c-.5263-1.7588-1.1875-5.9638.13-7.7343a2.1137,2.1137,0,0,1,1.82-.8448c3.873,0,5.7351,5.1555,6.1452,6.4621a2.4969,2.4969,0,1,0,2.4571-.7413ZM24.23,17.0083c4.9641,0,7.675,1.8633,8.5826,2.6318a17.483,17.483,0,0,0-3.3435,4.9125,10.092,10.092,0,0,0-8.07-4.6693,13.1135,13.1135,0,0,0-5.4184.9A10.4072,10.4072,0,0,1,24.23,17.0083ZM8.5,38.0137a1.5,1.5,0,1,1,1.5-1.5A1.5017,1.5017,0,0,1,8.5,38.0137ZM32,46.9917c-9.0151,0-13.08-2.2422-13.9722-2.8169a19.5758,19.5758,0,0,1,.44-3.2867A46.7406,46.7406,0,0,0,32,43.0161a47.6986,47.6986,0,0,0,13.5375-2.1019,19.53,19.53,0,0,1,.4342,3.2606C45.0791,44.75,41.0156,46.9917,32,46.9917ZM47.5107,27.3779a3.09,3.09,0,0,0-2.622,1.2476c-1.6768,2.2529-.7744,6.9853-.2852,8.6186.21.7.4755,1.6555.7186,2.69A46.62,46.62,0,0,1,32,42.0161a45.6576,45.6576,0,0,1-13.3162-2.1087c.2417-1.0243.5053-1.97.7132-2.6633.4892-1.6328,1.3921-6.3642-.2852-8.6181a3.09,3.09,0,0,0-2.6225-1.2481c-4.3281,0-6.3866,5.0055-6.9974,6.8433a2.4822,2.4822,0,0,0-.6057-.1685,13.4531,13.4531,0,0,1,2.5591-8.7861,11.8269,11.8269,0,0,1,9.8941-4.3848,9.1641,9.1641,0,0,1,7.65,4.78c-.2185.5513-.3386.9243-.3582.9881a.5.5,0,0,0,.956.2944c.0215-.0708,2.2349-7.0649,7.3809-8.8378a9.7448,9.7448,0,0,1,7.9131.4038,4.6638,4.6638,0,0,1,1.8659,1.8534,12.9241,12.9241,0,0,0-4.1462-.48,10.1452,10.1452,0,0,0-8.5186,5.3779.5.5,0,1,0,.875.4844,9.1732,9.1732,0,0,1,7.7041-4.8638,11.8236,11.8236,0,0,1,9.8946,4.3853,13.475,13.475,0,0,1,2.5578,8.7856,2.486,2.486,0,0,0-.6051.1682C53.8978,32.383,51.8386,27.3779,47.5107,27.3779ZM55.5,38.0137a1.5,1.5,0,1,1,1.5-1.5A1.5017,1.5017,0,0,1,55.5,38.0137Z"/></g></svg>